<svg xmlns="http://www.w3.org/2000/svg" viewBox="0 0 24 24" fill="currentColor" class="w-6 h-6">
  <path d="M17.405 17.863a.75.75 0 01-.672.437H6.25a.75.75 0 01-.672-.437l-2.022-3.858a.75.75 0 01.328-1.022l2.35-1.223a.75.75 0 01.884.093l.872 1.002a.75.75 0 001.172 0l1.458-1.673a.75.75 0 011.082-.083l2.25 1.5a.75.75 0 01.213.938l-1.354 2.585a.75.75 0 00.581.99l2.422.538a.75.75 0 01.552.888l-1.206 3.52Z" />
  <path fill-rule="evenodd" d="M2.553 11.23a.75.75 0 01.22-1.033L6.03 8.13a.75.75 0 01.884.093l.872 1.002a.75.75 0 001.172 0l1.458-1.673a.75.75 0 011.082-.083l2.25 1.5a.75.75 0 01.213.938l-1.354 2.585a.75.75 0 00.581.99l2.422.538a.75.75 0 01.552.888l-1.206 3.52a.75.75 0 01-.672.437H6.25a.75.75 0 01-.672-.437L3.555 15.008a.75.75 0 01.328-1.022l1.332-.693a.75.75 0 00-.58-1.373l-1.54.803a.75.75 0 01-1.043-.219L.55 9.475a.75.75 0 01.22-1.033l1.782-1.225Z" clip-rule="evenodd" />
</svg> 