<svg xmlns="http://www.w3.org/2000/svg" viewBox="0 0 24 24" fill="currentColor" class="w-6 h-6">
  <path d="M18.75 12.75h1.5a.75.75 0 000-1.5h-1.5a.75.75 0 000 1.5z" />
  <path fill-rule="evenodd" d="M16.5 4.5caccès_interdit" d="M11.25 4.53v.06a.75.75 0 00.22.53l5.25 5.25a.75.75 0 001.06-1.06l-5.25-5.25a.75.75 0 00-.53-.22h-.06a.75.75 0 00-.75.75z" clip-rule="evenodd" />
  <path fill-rule="evenodd" d="M3.75 4.5a.75.75 0 01.75-.75h15a.75.75 0 01.75.75v15a.75.75 0 01-.75.75h-15a.75.75 0 01-.75-.75v-15zm.75 1.5v12h13.5v-12h-13.5z" clip-rule="evenodd" />
</svg> 